<?xml version="1.0" encoding="UTF-8"?>
<svg id="_Слой_2" data-name="Слой 2" xmlns="http://www.w3.org/2000/svg" viewBox="0 0 21.76 19.44">
  <defs>
    <style>
      .cls-1 {
        fill: #2c3c90;
        stroke-width: 0px;
      }
    </style>
  </defs>
  <g id="_Слой_1-2" data-name="Слой 1">
    <g>
      <path class="cls-1" d="M4.32,19.17H0c-.02-2.18.18-3.86.59-5.05.22-.63.65-1.56,1.3-2.78.36-.7.64-1.29.84-1.75.41-1.04.62-2.03.62-2.97v-3.32c0-.56-.07-1.01-.22-1.35-.18-.43-.49-.65-.92-.65-.38,0-.66.21-.84.62-.14.4-.22.92-.22,1.57v4.1H.14v-3.19c0-.95.04-1.61.11-1.97.11-.7.35-1.24.72-1.61s.78-.55,1.23-.55.89.15,1.27.46.63.72.76,1.24c.11.47.16.95.16,1.43v2.67c0,1.35-.14,2.44-.43,3.27-.2.65-.57,1.49-1.11,2.51-.68,1.28-1.12,2.2-1.3,2.75-.38,1.12-.55,2.29-.51,3.54h3.29v1.03Z"/>
      <path class="cls-1" d="M8.02,19.44c-.86,0-1.47-.37-1.81-1.11-.2-.41-.3-1.25-.3-2.51V3.62c0-1.26.1-2.1.3-2.51.34-.74.94-1.11,1.81-1.11s1.47.37,1.81,1.11c.2.41.3,1.25.3,2.51v12.2c0,1.26-.1,2.1-.3,2.51-.34.74-.94,1.11-1.81,1.11ZM8.02,18.41c.47,0,.78-.2.94-.59.09-.23.13-.84.13-1.81V3.43c0-.97-.04-1.57-.13-1.81-.16-.4-.48-.59-.94-.59s-.76.2-.92.59c-.11.29-.16.89-.16,1.81v12.58c0,.92.05,1.52.16,1.81.16.4.47.59.92.59Z"/>
      <path class="cls-1" d="M15.85,19.17h-4.32c-.02-2.18.18-3.86.59-5.05.22-.63.65-1.56,1.3-2.78.36-.7.64-1.29.84-1.75.41-1.04.62-2.03.62-2.97v-3.32c0-.56-.07-1.01-.22-1.35-.18-.43-.49-.65-.92-.65-.38,0-.66.21-.84.62-.14.4-.22.92-.22,1.57v4.1h-1.03v-3.19c0-.95.04-1.61.11-1.97.11-.7.35-1.24.72-1.61s.78-.55,1.23-.55.89.15,1.27.46.63.72.76,1.24c.11.47.16.95.16,1.43v2.67c0,1.35-.14,2.44-.43,3.27-.2.65-.57,1.49-1.11,2.51-.68,1.28-1.12,2.2-1.3,2.75-.38,1.12-.55,2.29-.51,3.54h3.29v1.03Z"/>
      <path class="cls-1" d="M20.82.27c-.16,2.79-.56,5.35-1.19,7.69-.43,1.58-1.11,3.52-2.02,5.81h2.05v-4.46c.23-.52.42-1.03.57-1.51.16-.58.28-1.13.35-1.67h.11v7.64h1.08v1.03h-1.08v4.37h-1.03v-4.37h-2.81v-1.05c.85-2.32,1.44-4.2,1.78-5.64.67-2.83,1.04-5.44,1.13-7.83h1.05Z"/>
    </g>
  </g>
</svg>