<svg width="418" height="416" viewBox="0 0 418 416" fill="none" xmlns="http://www.w3.org/2000/svg">
<path d="M28.8033 57.6825C31.2167 60.5207 33.5451 63.121 35.7715 65.4834L29.3132 70.973L19.5408 59.467L10.2612 67.3529L20.0336 78.8589L13.5753 84.3315C11.3149 81.3573 9.1225 78.655 7.03204 76.1736C4.9246 73.7093 2.59621 71.1089 0.046875 68.3897L22.2261 49.5586C24.1975 52.1419 26.39 54.8442 28.8033 57.6995" fill="#1D1D1B"/>
<path d="M46.0198 46.2106C47.7194 45.1569 48.96 44.3241 49.7418 43.6953C50.5236 43.0664 50.9995 42.5056 51.1695 42.0297C51.3394 41.5368 51.2544 41.027 50.9145 40.4831C50.5746 39.9393 50.1667 39.6503 49.6908 39.5654C49.198 39.4804 48.5181 39.6673 47.6004 40.0922C46.6996 40.5171 45.374 41.2649 43.6234 42.3356L39.3915 44.953L41.7879 48.8279L46.0198 46.2276V46.2106ZM42.7737 36.1493C46.8356 33.6509 50.0308 32.4612 52.3252 32.6312C54.6365 32.8011 56.4211 33.9398 57.7297 36.0303C58.6135 37.4749 59.0554 38.8855 59.0384 40.2792C59.0214 41.6728 58.3926 43.1514 57.1519 44.698C55.9112 46.2446 53.8717 47.8762 51.0845 49.6097L44.7111 53.5357L47.3625 57.8526L39.8164 62.5093C38.0149 59.2462 36.2814 56.221 34.5648 53.4507C32.8653 50.6804 30.9448 47.7742 28.8203 44.698L36.3663 40.0412L42.7397 36.1323L42.7737 36.1493Z" fill="#1D1D1B"/>
<path d="M85.2316 30.6768C85.9964 29.4701 86.0304 28.0595 85.3675 26.4789C84.7047 24.9153 83.668 23.9976 82.2574 23.6916C80.8467 23.3857 78.9262 23.7596 76.4619 24.7964C74.0315 25.8331 72.4339 26.9378 71.6691 28.1615C70.9043 29.3852 70.8703 30.7788 71.5162 32.3254C72.179 33.906 73.2157 34.8407 74.6264 35.1466C76.037 35.4526 77.9575 35.0787 80.3878 34.0419C82.8352 33.0052 84.4498 31.8835 85.2316 30.6598M70.3945 41.537C67.2673 40.7892 65.0239 38.8177 63.6642 35.6395C62.3386 32.4953 62.4745 29.5211 64.1061 26.7508C65.7377 23.9636 69.0858 21.4992 74.1845 19.3408C79.2831 17.1824 83.4131 16.4855 86.5232 17.2503C89.6504 18.0151 91.8938 19.9696 93.2195 23.1138C94.5791 26.309 94.4432 29.3002 92.8116 32.0535C91.18 34.8067 87.8149 37.2711 82.6822 39.4295C77.6176 41.571 73.5216 42.2678 70.3775 41.52" fill="#1D1D1B"/>
<path d="M123.743 16.5707C124.253 15.9589 124.406 15.2791 124.236 14.5653C123.896 13.1376 122.434 12.5088 119.834 12.6788L120.378 15.1601C120.531 15.8569 120.752 16.9107 121.092 18.3043C122.367 17.7604 123.25 17.1826 123.76 16.5707M108.6 20.1398C109.314 20.4627 110.351 20.5817 111.693 20.4967L110.946 17.3865L110.368 14.9222C107.971 15.9419 106.952 17.1656 107.291 18.5932C107.461 19.307 107.886 19.8339 108.6 20.1398ZM122.417 23.8788L123.097 26.3602L113.512 28.6376L112.951 26.1052C108.311 26.8021 104.742 26.7001 102.244 25.7823C99.7454 24.8476 98.2158 23.233 97.672 20.8876C97.1281 18.5762 97.74 16.4348 99.5415 14.4803C101.326 12.5258 104.487 10.8093 108.974 9.34764L108.328 6.78131L117.914 4.50391C118.016 5.04776 118.203 5.91454 118.492 7.08723C123.182 6.37342 126.785 6.47539 129.301 7.41014C131.816 8.3449 133.346 9.97647 133.889 12.2879C135.062 17.1826 131.238 21.0576 122.434 23.8958" fill="#1D1D1B"/>
<path d="M148.59 17.0295C157.682 16.3327 164.276 15.7379 168.355 15.262C168.236 16.0608 168.202 16.8766 168.219 17.7094C168.236 18.5421 168.304 19.5959 168.389 20.8705L140.483 22.91C140.398 19.188 140.245 15.7039 140.007 12.4577C139.769 9.22858 139.412 5.74449 138.953 2.03947L166.86 0L167.234 5.20064L147.808 6.62826L148.012 9.38154C149.167 9.31356 150.867 9.21159 153.127 9.04163C156.934 8.75271 160.86 8.4128 164.922 8.0049L165.296 12.9506C161.217 13.1376 157.274 13.3585 153.467 13.6474C151.207 13.8174 149.524 13.9533 148.369 14.0383L148.59 17.0295Z" fill="#1D1D1B"/>
<path d="M175.73 18.525C173.3 16.5025 172.212 13.7832 172.45 10.3841C172.688 6.95102 174.167 4.3337 176.869 2.51518C179.571 0.713651 183.616 -0.000161648 189.038 0.37374C196.601 0.917598 201.512 3.34796 203.773 7.69882C201.58 8.1407 198.997 8.85452 196.006 9.82326C195.394 8.70156 194.357 7.83478 192.896 7.20595C191.434 6.57711 189.921 6.22021 188.375 6.10124C186.08 5.93128 184.33 6.30519 183.14 7.18895C181.95 8.07272 181.305 9.22842 181.203 10.639C181.101 12.1686 181.611 13.4773 182.749 14.514C183.888 15.5678 185.707 16.1796 188.188 16.3665C190.176 16.5025 191.774 16.3665 192.981 15.9247C194.187 15.4828 195.105 14.701 195.734 13.5963C197.637 14.582 200.085 15.7037 203.076 16.9784C201.716 19.2048 199.592 20.6834 196.737 21.4142C193.864 22.128 190.788 22.383 187.491 22.145C182.086 21.7541 178.16 20.5475 175.73 18.525Z" fill="#1D1D1B"/>
<path d="M209.208 21.6857C207.101 19.3233 206.421 16.485 207.169 13.1539C207.917 9.80578 209.752 7.4264 212.692 6.03277C215.633 4.63914 219.762 4.53716 225.048 5.70985C232.458 7.35842 236.962 10.5026 238.56 15.1254C236.316 15.2274 233.648 15.5503 230.555 16.0941C230.113 14.8875 229.212 13.8847 227.852 13.0349C226.51 12.2022 225.065 11.6243 223.535 11.2844C221.275 10.7745 219.508 10.8765 218.182 11.5903C216.873 12.2871 216.057 13.3409 215.752 14.7175C215.412 16.2131 215.735 17.5727 216.703 18.7794C217.672 19.9861 219.389 20.8699 221.819 21.4137C223.756 21.8386 225.371 21.9406 226.629 21.6687C227.903 21.4137 228.923 20.7849 229.705 19.7822C231.438 21.0228 233.699 22.5015 236.469 24.201C234.787 26.2065 232.475 27.3452 229.535 27.6511C226.595 27.94 223.501 27.7191 220.272 27.0053C214.97 25.8156 211.265 24.048 209.174 21.7027" fill="#1D1D1B"/>
<path d="M254.509 14.8542L248.068 29.7083L262.089 17.8114L274.445 22.6211C273.119 25.5953 271.776 28.7905 270.434 32.2406C269.074 35.7077 267.884 39.0048 266.865 42.081L258.231 38.7159L264.553 24.2867L250.719 35.7757L238.703 31.1019C240.233 27.7028 241.592 24.4906 242.765 21.4484C243.938 18.4402 245.11 15.1771 246.283 11.625L254.509 14.8202V14.8542Z" fill="#1D1D1B"/>
<path d="M293.626 49.3547C295.054 49.2527 296.21 48.4539 297.077 46.9583C297.926 45.4967 298.062 44.1201 297.467 42.8114C296.873 41.5028 295.428 40.1771 293.134 38.8175C290.856 37.4748 289.004 36.863 287.559 36.9819C286.131 37.1009 284.976 37.8827 284.126 39.3443C283.259 40.8229 283.123 42.1996 283.718 43.5252C284.313 44.8339 285.741 46.1595 288.035 47.4852C290.329 48.8278 292.182 49.4567 293.626 49.3377M276.053 43.9331C274.778 40.9759 275.033 38.0017 276.784 35.0105C278.517 32.0532 280.982 30.4047 284.177 30.0648C287.372 29.7248 291.366 30.9315 296.125 33.7358C300.901 36.5401 303.926 39.4293 305.183 42.3865C306.441 45.3607 306.203 48.301 304.47 51.2582C302.702 54.2494 300.238 55.932 297.06 56.2719C293.881 56.6118 289.887 55.3711 285.078 52.5499C280.336 49.7626 277.328 46.8903 276.053 43.9331Z" fill="#1D1D1B"/>
<path d="M338.632 65.4325C336.456 67.8458 334.179 70.4971 331.834 73.3864C329.488 76.2756 327.33 79.0289 325.426 81.6632L318.866 76.3096L323.812 70.2422L313.546 61.8804L308.584 67.9648L302.023 62.6282C304.522 59.8579 306.799 57.2066 308.856 54.6913C310.912 52.1759 313.037 49.4057 315.229 46.3975L321.789 51.7511L316.844 57.8355L327.126 66.1973L332.072 60.1129L338.632 65.4665V65.4325Z" fill="#1D1D1B"/>
<path d="M347.587 92.8131C348.471 90.7736 349.337 88.7342 350.204 86.6777L351.02 84.7742C349.168 85.3181 346.38 86.1678 342.658 87.3235L347.604 92.8131H347.587ZM343.797 101.464C344.307 100.393 344.919 99.0165 345.632 97.3339L337.933 88.8021L333.668 90.2298L327.617 83.5165L349.915 76.9902L358.787 86.8476L350.051 108.398L343.797 101.464Z" fill="#1D1D1B"/>
<path d="M368.613 136.611L363.633 128.963L376.431 120.635L372.029 113.871L370.601 114.755C369.378 115.553 368.29 116.216 367.304 116.743C366.335 117.27 365.299 117.746 364.194 118.154C362.172 118.884 360.098 118.783 357.974 117.848C355.849 116.896 353.827 114.959 351.906 112.018L356.614 108.959C357.26 109.656 357.94 110.098 358.67 110.268C359.401 110.421 360.353 110.319 361.492 109.911C362.409 109.571 364.245 108.5 367.049 106.682L371.961 103.436L386.101 125.224L368.596 136.628L368.613 136.611Z" fill="#1D1D1B"/>
<path d="M394.399 141.93L379.358 147.878L397.679 149.374L403.015 161.509C399.973 162.664 396.761 163.99 393.379 165.486C389.963 166.981 386.802 168.46 383.912 169.939L380.173 161.475L394.84 155.73L376.927 154.099L371.727 142.287C375.211 140.961 378.44 139.653 381.414 138.344C384.371 137.052 387.515 135.557 390.847 133.874L394.399 141.947V141.93Z" fill="#1D1D1B"/>
<path d="M406.904 196.757C406.071 193.392 405.239 190.129 404.389 186.968L389.892 190.962L387.699 182.974L402.196 178.963C401.296 175.802 400.361 172.572 399.358 169.292L405.188 167.678L412.751 195.109L406.921 196.723L406.904 196.757Z" fill="#1D1D1B"/>
<path d="M399.459 211.068C400.615 219.379 401.549 225.395 402.212 229.117C401.413 229.066 400.598 229.083 399.765 229.168C398.932 229.236 397.895 229.372 396.638 229.542L393.188 204.032C396.91 203.709 400.377 203.335 403.589 202.893C406.801 202.468 410.251 201.907 413.922 201.228L417.372 226.738L412.205 227.435L409.792 209.674L407.056 210.048C407.175 211.102 407.379 212.649 407.651 214.722C408.127 218.206 408.67 221.792 409.282 225.497L404.371 226.16C403.98 222.421 403.555 218.818 403.079 215.334C402.807 213.277 402.586 211.731 402.416 210.677L399.442 211.085L399.459 211.068Z" fill="#1D1D1B"/>
<path d="M411.931 260.967C412.016 257.499 412.05 254.134 412.067 250.854L397.026 250.922L396.992 242.628L412.033 242.577C411.999 239.28 411.931 235.932 411.829 232.499H417.88L417.999 260.933H411.948L411.931 260.967Z" fill="#1D1D1B"/>
<path d="M170.899 78.7744V144.853M51.6586 128.163L98.3793 174.884M2.26953 247.387H68.3482M51.6586 366.628L98.3793 319.89M170.882 416V349.921M290.123 366.611L243.402 319.873M339.512 247.37H273.433M290.123 128.129L243.402 174.85" stroke="#1D1D1B" stroke-width="0.5" stroke-miterlimit="10"/>
<path d="M158.287 262.472H150.002C149.968 258.215 150.347 254.925 151.141 252.603C151.556 251.371 152.384 249.559 153.627 247.167C154.317 245.794 154.852 244.651 155.232 243.736C156.026 241.695 156.423 239.76 156.423 237.931V231.439C156.423 230.348 156.285 229.469 156.008 228.8C155.663 227.956 155.076 227.533 154.248 227.533C153.523 227.533 152.988 227.938 152.643 228.747C152.367 229.521 152.229 230.542 152.229 231.808V239.831H150.261V233.603C150.261 231.738 150.33 230.454 150.468 229.75C150.675 228.378 151.124 227.34 151.814 226.636C152.539 225.897 153.333 225.528 154.196 225.528C155.094 225.528 155.905 225.827 156.63 226.425C157.355 227.023 157.838 227.832 158.08 228.853C158.287 229.768 158.39 230.7 158.39 231.65V236.875C158.39 239.514 158.114 241.643 157.562 243.261C157.182 244.528 156.475 246.164 155.439 248.169C154.127 250.668 153.299 252.462 152.954 253.553C152.229 255.734 151.901 258.039 151.97 260.467H158.287V262.472Z" fill="#25221F"/>
<path d="M168.851 260.836C168.195 262.279 167.039 263 165.382 263C163.725 263 162.569 262.279 161.913 260.836C161.533 260.027 161.343 258.391 161.343 255.928V232.072C161.343 229.609 161.533 227.973 161.913 227.164C162.569 225.721 163.725 225 165.382 225C167.039 225 168.195 225.721 168.851 227.164C169.231 227.973 169.421 229.609 169.421 232.072V255.928C169.421 258.391 169.231 260.027 168.851 260.836ZM165.382 260.994C166.28 260.994 166.884 260.607 167.194 259.833C167.367 259.376 167.453 258.197 167.453 256.297V231.703C167.453 229.803 167.367 228.624 167.194 228.167C166.884 227.393 166.28 227.006 165.382 227.006C164.519 227.006 163.932 227.393 163.622 228.167C163.414 228.73 163.311 229.908 163.311 231.703V256.297C163.311 258.092 163.414 259.27 163.622 259.833C163.932 260.607 164.519 260.994 165.382 260.994Z" fill="#25221F"/>
<path d="M180.384 262.472H172.099C172.065 258.215 172.444 254.925 173.238 252.603C173.653 251.371 174.481 249.559 175.724 247.167C176.414 245.794 176.949 244.651 177.329 243.736C178.123 241.695 178.52 239.76 178.52 237.931V231.439C178.52 230.348 178.382 229.469 178.105 228.8C177.76 227.956 177.173 227.533 176.345 227.533C175.62 227.533 175.085 227.938 174.74 228.747C174.464 229.521 174.326 230.542 174.326 231.808V239.831H172.358V233.603C172.358 231.738 172.427 230.454 172.565 229.75C172.772 228.378 173.221 227.34 173.911 226.636C174.636 225.897 175.43 225.528 176.293 225.528C177.191 225.528 178.002 225.827 178.727 226.425C179.452 227.023 179.935 227.832 180.177 228.853C180.384 229.768 180.487 230.7 180.487 231.65V236.875C180.487 239.514 180.211 241.643 179.659 243.261C179.279 244.528 178.571 246.164 177.536 248.169C176.224 250.668 175.396 252.462 175.051 253.553C174.326 255.734 173.998 258.039 174.067 260.467H180.384V262.472Z" fill="#25221F"/>
<path d="M187.091 262.894C185.641 262.894 184.553 262.244 183.828 260.942C183.276 259.921 183 258.356 183 256.244V250.228H184.968V256.456C184.968 258.074 185.071 259.13 185.278 259.622C185.589 260.467 186.193 260.889 187.091 260.889C187.988 260.889 188.592 260.502 188.903 259.728C189.11 259.235 189.213 258.144 189.213 256.456V248.592C189.213 245.882 188.54 244.528 187.194 244.528H185.848V242.522H186.883C188.368 242.522 189.11 240.992 189.11 237.931V231.597C189.11 229.944 189.006 228.835 188.799 228.272C188.489 227.428 187.902 227.006 187.039 227.006C186.21 227.006 185.623 227.428 185.278 228.272C185.071 228.87 184.968 229.926 184.968 231.439V235.503H183V231.492C183 229.556 183.242 228.096 183.725 227.111C184.45 225.704 185.554 225 187.039 225C188.558 225 189.662 225.721 190.353 227.164C190.836 228.149 191.077 229.838 191.077 232.231V238.089C191.077 239.743 190.888 240.904 190.508 241.572C190.059 242.381 189.403 242.944 188.54 243.261C189.783 243.789 190.577 244.686 190.922 245.953C191.095 246.656 191.181 247.782 191.181 249.331V256.244C191.181 258.531 190.922 260.132 190.404 261.047C189.679 262.279 188.575 262.894 187.091 262.894Z" fill="#25221F"/>
</svg>
