<svg width="48" height="48" viewBox="0 0 48 48" fill="none" xmlns="http://www.w3.org/2000/svg">
<path d="M31.5748 33.3235C30.7802 33.3235 29.9857 33.3002 29.1911 33.3235C27.7188 33.3702 26.6205 34.0708 26.0129 35.4018C25.4287 36.7329 25.639 37.9939 26.5738 39.1148C27.5786 40.3057 27.789 41.59 27.1346 42.9911C26.4803 44.3689 25.3118 45.0228 23.8162 44.9994C18.7918 44.906 14.3049 43.3181 10.4724 40.0488C6.21917 36.4293 3.71866 31.8524 3.13443 26.2713C2.50346 20.3633 4.09257 15.0624 7.92512 10.5088C11.3137 6.44564 15.637 3.97036 20.895 3.24645C27.3216 2.35908 33.1639 3.8536 38.235 7.96351C42.0675 11.0693 44.3811 15.0858 44.9186 20.0364C45.5729 25.8743 42.2311 31.0817 36.7627 32.8098C36.2019 32.9966 35.6176 33.1367 35.0334 33.2068C33.8883 33.3002 32.7199 33.3235 31.5748 33.3936C31.5748 33.3469 31.5748 33.3469 31.5748 33.3235ZM36.7861 17.0006C34.7763 17.0473 33.2807 18.6119 33.3275 20.5968C33.3742 22.5117 34.9867 24.0062 36.9497 23.9595C38.8192 23.9128 40.3382 22.3248 40.3148 20.4333C40.2915 18.5185 38.7257 16.9773 36.7861 17.0006ZM7.66806 20.5034C7.66806 22.4416 9.23379 23.9828 11.1734 23.9828C13.0897 23.9828 14.6555 22.4182 14.6555 20.4801C14.6555 18.5419 13.1131 17.0006 11.1501 17.0006C9.21042 17.0006 7.64469 18.5652 7.66806 20.5034ZM18.2309 6.98273C15.9174 6.93603 14.0011 8.75747 13.9544 11.0226C13.9076 13.3811 15.7304 15.3193 18.0206 15.366C20.4043 15.4127 22.3206 13.5913 22.3673 11.2561C22.3907 8.89758 20.5912 7.02944 18.2309 6.98273ZM29.7987 6.98273C27.4618 6.98273 25.6156 8.85087 25.6156 11.1861C25.639 13.5212 27.5085 15.366 29.8221 15.366C32.1356 15.366 34.0052 13.4745 34.0052 11.1627C34.0285 8.82752 32.1356 6.95938 29.7987 6.98273Z" fill="#AB97FF"/>
</svg>
