<?xml version="1.0" encoding="UTF-8"?>
<svg id="_Слой_2" data-name="Слой 2" xmlns="http://www.w3.org/2000/svg" viewBox="0 0 23.08 23.44">
  <defs>
    <style>
      .cls-1 {
        fill: #2c3c90;
        stroke-width: 0px;
      }
    </style>
  </defs>
  <g id="_Слой_1-2" data-name="Слой 1">
    <g>
      <path class="cls-1" d="M11.54,5.28c-3.49,0-6.34,2.89-6.34,6.44s2.84,6.44,6.34,6.44,6.34-2.89,6.34-6.44-2.84-6.44-6.34-6.44M11.54,23.44C5.18,23.44,0,18.18,0,11.72S5.18,0,11.54,0s11.54,5.26,11.54,11.72-5.17,11.72-11.54,11.72"/>
      <path class="cls-1" d="M11.54,14.55c1.54,0,2.78-1.26,2.78-2.83s-1.24-2.83-2.78-2.83-2.78,1.26-2.78,2.83,1.25,2.83,2.78,2.83"/>
    </g>
  </g>
</svg>