<svg width="32" height="32" viewBox="0 0 32 32" fill="none" xmlns="http://www.w3.org/2000/svg">
<path d="M31.5177 16.7598L20.0021 16.5824C19.9392 15.7635 19.6033 14.9894 19.0483 14.3841C18.4932 13.7788 17.7511 13.3772 16.9408 13.2436L16.476 10.4072C16.4575 10.2936 16.3993 10.1902 16.3116 10.1156C16.2239 10.041 16.1125 10 15.9974 10C15.8823 10 15.7709 10.041 15.6832 10.1156C15.5955 10.1902 15.5373 10.2936 15.5188 10.4072L15.054 13.2436C14.2435 13.3768 13.5011 13.7782 12.946 14.3836C12.3909 14.989 12.0552 15.7633 11.9927 16.5824L0.477135 16.7598C0.357728 16.7617 0.243219 16.8076 0.155562 16.8887C0.0679044 16.9698 0.0132645 17.0804 0.00211755 17.1993C-0.00902937 17.3182 0.0241009 17.437 0.0951565 17.533C0.166212 17.629 0.270195 17.6954 0.38717 17.7194L6.73722 19.0064C6.56044 19.2258 6.43888 19.4845 6.38272 19.7606C6.32656 20.0367 6.33745 20.3223 6.41447 20.5933C6.49149 20.8644 6.63241 21.113 6.82538 21.3183C7.01835 21.5236 7.25777 21.6797 7.52352 21.7734C7.78927 21.867 8.07361 21.8956 8.35268 21.8566C8.63175 21.8177 8.89741 21.7124 9.12737 21.5495C9.35733 21.3867 9.54487 21.1711 9.67426 20.9208C9.80366 20.6705 9.87113 20.3928 9.87101 20.111C9.87054 19.9469 9.84698 19.7837 9.80104 19.6262L12.9548 20.2659H12.9773C13.7495 21.3655 14.8466 22.0153 15.9961 22.0153C17.1457 22.0153 18.2578 21.363 19.045 20.221L22.1988 19.6112C22.1472 19.7729 22.1194 19.9413 22.1163 20.111C22.1154 20.3945 22.1829 20.674 22.3129 20.9259C22.443 21.1779 22.6319 21.3947 22.8635 21.5581C23.0952 21.7216 23.3628 21.8268 23.6437 21.8648C23.9247 21.9029 24.2107 21.8727 24.4775 21.7768C24.7442 21.6809 24.984 21.5221 25.1764 21.3139C25.3688 21.1057 25.5082 20.8541 25.5828 20.5806C25.6574 20.3071 25.6649 20.0196 25.6048 19.7425C25.5447 19.4655 25.4188 19.207 25.2376 18.9889L31.6126 17.7194C31.7294 17.6954 31.8333 17.6293 31.9044 17.5335C31.9755 17.4378 32.0088 17.3192 31.998 17.2005C31.9872 17.0817 31.933 16.9711 31.8457 16.8898C31.7585 16.8085 31.6444 16.7622 31.5252 16.7598" fill="#00A1D3"/>
</svg>
