<svg width="1440" height="2846" viewBox="0 0 1440 2846" fill="none" xmlns="http://www.w3.org/2000/svg">
<g filter="url(#filter0_f_17_552)">
<path d="M639.73 1385.57C642.501 1383.28 646.225 1386.91 643.998 1389.74L373.514 1732.83C371.65 1735.2 374.041 1738.53 376.876 1737.52L788.428 1590.88C791.817 1589.67 794.073 1594.36 791.014 1596.26L419.495 1826.15C416.936 1827.74 418.043 1831.68 421.054 1831.7L857.938 1834.67C861.535 1834.69 862.051 1839.87 858.529 1840.61L430.788 1929.57C427.84 1930.18 427.531 1934.27 430.353 1935.32L839.876 2087.53C843.248 2088.78 841.96 2093.83 838.4 2093.31L406.028 2030.61C403.049 2030.18 401.361 2033.91 403.653 2035.86L736.42 2318.96C739.16 2321.29 736.225 2325.59 733.056 2323.89L348.203 2117.09C345.551 2115.67 342.687 2118.6 344.175 2121.22L560.048 2501.05C561.826 2504.18 557.597 2507.22 555.202 2504.53L264.287 2178.58C262.283 2176.33 258.589 2178.11 259.091 2181.08L332.034 2611.84C332.635 2615.39 327.623 2616.79 326.29 2613.45L164.402 2207.66C163.287 2204.86 159.208 2205.27 158.665 2208.23L79.8798 2637.96C79.2311 2641.5 74.0402 2641.11 73.9303 2637.51L60.5956 2200.82C60.5038 2197.81 56.5321 2196.8 55.0092 2199.39L-166.002 2576.26C-167.821 2579.37 -172.565 2577.22 -171.439 2573.81L-34.6121 2158.89C-33.6693 2156.03 -37.0547 2153.72 -39.374 2155.64L-375.953 2434.19C-378.725 2436.48 -382.449 2432.85 -380.222 2430.02L-109.737 2086.93C-107.874 2084.56 -110.264 2081.23 -113.1 2082.24L-524.652 2228.88C-528.04 2230.09 -530.296 2225.4 -527.237 2223.5L-155.719 1993.61C-153.159 1992.02 -154.267 1988.08 -157.277 1988.06L-594.162 1985.09C-597.759 1985.07 -598.274 1979.89 -594.752 1979.15L-167.011 1890.19C-164.064 1889.58 -163.755 1885.49 -166.577 1884.44L-576.099 1732.23C-579.471 1730.98 -578.184 1725.93 -574.624 1726.45L-142.252 1789.15C-139.272 1789.58 -137.584 1785.85 -139.877 1783.9L-472.643 1500.8C-475.383 1498.47 -472.448 1494.17 -469.28 1495.87L-84.4268 1702.67C-81.7749 1704.09 -78.9111 1701.16 -80.3985 1698.54L-296.272 1318.71C-298.049 1315.58 -293.821 1312.54 -291.426 1315.23L-0.511045 1641.18C1.49353 1643.43 5.18767 1641.65 4.68505 1638.68L-68.258 1207.92C-68.8586 1204.37 -63.8466 1202.97 -62.5136 1206.31L99.3739 1612.1C100.489 1614.9 104.568 1614.49 105.111 1611.53L183.897 1181.8C184.545 1178.26 189.736 1178.65 189.846 1182.25L203.181 1618.94C203.272 1621.95 207.244 1622.96 208.767 1620.37L429.778 1243.5C431.598 1240.39 436.342 1242.54 435.215 1245.95L298.388 1660.87C297.446 1663.73 300.831 1666.04 303.15 1664.12L639.73 1385.57Z" fill="url(#paint0_linear_17_552)" fill-opacity="0.4"/>
</g>
<g filter="url(#filter1_f_17_552)">
<circle cx="1133.51" cy="726.5" r="552.5" fill="url(#paint1_linear_17_552)" fill-opacity="0.76"/>
</g>
<g filter="url(#filter2_f_17_552)">
<circle cx="1195.01" cy="3388" r="371" fill="url(#paint2_linear_17_552)" fill-opacity="0.76"/>
</g>
<path d="M-663.919 1637.79C-528.726 1524.96 -219.155 1349.59 -62.4084 1550.71C133.524 1802.1 644.393 1834.26 1026.7 1798.39C1332.55 1769.7 1473.44 2079.59 1505.66 2238.12L1529.92 2263.36" stroke="#293896" stroke-width="3"/>
<path d="M-704.495 1682.77C-569.303 1569.95 -259.731 1394.57 -102.985 1595.69C92.948 1847.08 603.816 1879.24 986.128 1843.38C1291.98 1814.68 1432.87 2124.57 1465.08 2283.1L1489.34 2308.35" stroke="#293896" stroke-opacity="0.5" stroke-width="3"/>
<path d="M1848.89 562.727C1658.89 396.016 1241.14 151.678 1090.11 508.022C901.327 953.451 279.033 1082.72 -199.17 1080.21C-581.733 1078.2 -690.542 1612.3 -697.127 1879.6L-721.728 1925.01" stroke="#293896" stroke-width="3"/>
<path d="M1852.03 473.032C1662.04 306.321 1244.29 61.9829 1093.26 418.326C904.469 863.756 282.176 993.021 -196.028 990.512C-578.59 988.504 -687.4 1522.6 -693.984 1789.9L-718.586 1835.31" stroke="#293896" stroke-opacity="0.5" stroke-width="3"/>
<defs>
<filter id="filter0_f_17_552" x="-697.143" y="1079.34" width="1658.06" height="1661.08" filterUnits="userSpaceOnUse" color-interpolation-filters="sRGB">
<feFlood flood-opacity="0" result="BackgroundImageFix"/>
<feBlend mode="normal" in="SourceGraphic" in2="BackgroundImageFix" result="shape"/>
<feGaussianBlur stdDeviation="50" result="effect1_foregroundBlur_17_552"/>
</filter>
<filter id="filter1_f_17_552" x="-418.991" y="-826" width="3105" height="3105" filterUnits="userSpaceOnUse" color-interpolation-filters="sRGB">
<feFlood flood-opacity="0" result="BackgroundImageFix"/>
<feBlend mode="normal" in="SourceGraphic" in2="BackgroundImageFix" result="shape"/>
<feGaussianBlur stdDeviation="500" result="effect1_foregroundBlur_17_552"/>
</filter>
<filter id="filter2_f_17_552" x="-175.991" y="2017" width="2742" height="2742" filterUnits="userSpaceOnUse" color-interpolation-filters="sRGB">
<feFlood flood-opacity="0" result="BackgroundImageFix"/>
<feBlend mode="normal" in="SourceGraphic" in2="BackgroundImageFix" result="shape"/>
<feGaussianBlur stdDeviation="500" result="effect1_foregroundBlur_17_552"/>
</filter>
<linearGradient id="paint0_linear_17_552" x1="451.056" y1="2099.04" x2="-397.691" y2="2452.18" gradientUnits="userSpaceOnUse">
<stop stop-color="#BCC5FF" stop-opacity="0.61"/>
<stop offset="1" stop-color="#1D3AFC" stop-opacity="0.57"/>
</linearGradient>
<linearGradient id="paint1_linear_17_552" x1="729.509" y1="100.5" x2="1287.01" y2="1279" gradientUnits="userSpaceOnUse">
<stop offset="0.196452" stop-color="#798BFF" stop-opacity="0"/>
<stop offset="0.823604" stop-color="#0023FF"/>
</linearGradient>
<linearGradient id="paint2_linear_17_552" x1="923.726" y1="2967.65" x2="1298.08" y2="3759" gradientUnits="userSpaceOnUse">
<stop offset="0.56013" stop-color="#EBEDFF"/>
<stop offset="0.716837" stop-color="#0023FF"/>
</linearGradient>
</defs>
</svg>
