<svg width="32" height="32" viewBox="0 0 32 32" fill="none" xmlns="http://www.w3.org/2000/svg">
<path d="M2.44872 5C2.2009 5 2 5.19699 2 5.44V11.248C2 11.491 2.2009 11.688 2.44872 11.688H29.5513C29.7991 11.688 30 11.491 30 11.248V5.44C30 5.19699 29.7991 5 29.5513 5H2.44872Z" fill="#E84B0F"/>
<path d="M2.44872 20.312C2.2009 20.312 2 20.509 2 20.752V26.56C2 26.803 2.2009 27 2.44872 27H29.5513C29.7991 27 30 26.803 30 26.56V20.752C30 20.509 29.7991 20.312 29.5513 20.312H2.44872Z" fill="#E84B0F"/>
<path d="M16.7179 13.096C16.7179 12.853 16.9188 12.656 17.1667 12.656H29.5513C29.7991 12.656 30 12.853 30 13.096V18.904C30 19.147 29.7991 19.344 29.5513 19.344H17.1667C16.9188 19.344 16.7179 19.147 16.7179 18.904V13.096Z" fill="#E84B0F"/>
<path d="M2.44872 12.656C2.2009 12.656 2 12.853 2 13.096V18.904C2 19.147 2.2009 19.344 2.44872 19.344H14.8333C15.0812 19.344 15.2821 19.147 15.2821 18.904V13.096C15.2821 12.853 15.0812 12.656 14.8333 12.656H2.44872Z" fill="#E84B0F"/>
</svg>
