<svg width="48" height="48" viewBox="0 0 48 48" fill="none" xmlns="http://www.w3.org/2000/svg">
<path d="M27.7509 23.8756C27.7509 21.8295 26.0823 20.1429 23.9965 20.1429C21.9108 20.1429 20.2422 21.8018 20.2422 23.8756C20.2422 25.4793 21.2433 26.8341 22.6616 27.3594L16.8215 45H32.0336L25.3314 27.3594C26.7497 26.8341 27.7509 25.4793 27.7509 23.8756Z" fill="#009BAD"/>
<path d="M30.4206 17.4885C26.8888 13.977 21.1043 13.977 17.5724 17.4885C15.8482 19.2028 14.9027 21.47 14.9027 23.8756C14.9027 26.2811 15.8482 28.5484 17.5724 30.2627C17.8783 30.5668 18.2399 30.7051 18.6292 30.7051C19.0186 30.7051 19.4079 30.5668 19.686 30.2627C20.27 29.682 20.27 28.7419 19.686 28.1613C18.5458 27.0277 17.9062 25.5069 17.9062 23.8756C17.9062 22.2442 18.5458 20.7512 19.686 19.5899C22.0498 17.2396 25.9154 17.2396 28.3071 19.5899C30.6709 21.9401 30.6709 25.7834 28.3071 28.1613C27.7231 28.7419 27.7231 29.682 28.3071 30.2627C28.8911 30.8433 29.8366 30.8433 30.4206 30.2627C33.9803 26.7512 33.9803 21.0277 30.4206 17.4885Z" fill="#009BAD"/>
<path d="M34.5921 13.341C31.7555 10.5207 28.0011 8.97234 23.9965 8.97234C19.9919 8.97234 16.2375 10.5207 13.4009 13.341C10.5921 16.1613 9.03475 19.894 9.03475 23.8756C9.03475 27.8571 10.5921 31.5899 13.4287 34.4101C14.0127 34.9908 14.9583 34.9908 15.5423 34.4101C16.1263 33.8295 16.1263 32.8894 15.5423 32.3088C13.2897 30.0691 12.0382 27.0553 12.0382 23.8756C12.0382 20.6958 13.2897 17.7097 15.5423 15.4424C17.7949 13.2028 20.8262 11.9585 24.0243 11.9585C27.2225 11.9585 30.2259 13.2028 32.5064 15.4424C37.1784 20.0876 37.1784 27.6359 32.5064 32.2811C31.9223 32.8617 31.9223 33.8018 32.5064 34.3825C32.8123 34.6866 33.1738 34.8249 33.5631 34.8249C33.9525 34.8249 34.3418 34.6866 34.6199 34.3825C40.4322 28.6037 40.4322 19.1475 34.5921 13.341Z" fill="#009BAD"/>
<path d="M38.847 9.1106C34.898 5.18433 29.6141 3 23.9965 3C18.4067 3 13.1228 5.18433 9.146 9.1106C5.19699 13.0645 3 18.318 3 23.8756C3 29.4608 5.19699 34.6866 9.146 38.6406C9.45191 38.9447 9.81344 39.083 10.2028 39.083C10.5921 39.083 10.9815 38.9447 11.2596 38.6406C11.8436 38.0599 11.8436 37.1198 11.2596 36.5392C7.86674 33.1659 5.97567 28.659 5.97567 23.8756C5.97567 19.0922 7.83893 14.5853 11.2596 11.212C14.6524 7.83871 19.1854 5.95853 23.9965 5.95853C28.8076 5.95853 33.3407 7.81106 36.7335 11.212C43.7416 18.1797 43.7416 29.5438 36.7335 36.5392C36.1495 37.1198 36.1495 38.0599 36.7335 38.6406C37.3175 39.2212 38.263 39.2212 38.847 38.6406C47.051 30.5115 47.051 17.2673 38.847 9.1106Z" fill="#009BAD"/>
</svg>
