<?xml version="1.0" encoding="UTF-8" standalone="no"?>
<!DOCTYPE svg PUBLIC "-//W3C//DTD SVG 1.1//EN" "http://www.w3.org/Graphics/SVG/1.1/DTD/svg11.dtd">
<svg xmlns="http://www.w3.org/2000/svg" version="1.1" viewBox="0.00 0.00 106.00 86.00">
<path fill="#000000" d="
  M 36.59 0.00
  L 83.79 0.00
  Q 88.77 1.22 88.76 6.75
  Q 88.73 19.37 88.77 32.01
  C 88.78 36.60 84.66 37.48 80.65 37.49
  Q 70.44 37.52 60.10 37.50
  A 2.93 2.91 -60.6 0 0 58.51 37.95
  L 42.20 48.19
  A 1.37 1.36 79.9 0 1 40.14 46.75
  L 41.75 39.19
  Q 41.89 38.52 41.36 38.09
  C 40.03 37.01 37.46 37.67 36.16 37.36
  C 32.04 36.37 31.51 33.33 31.51 29.34
  Q 31.49 17.91 31.50 6.50
  Q 31.51 1.21 36.59 0.00
  Z
  M 45.88 33.33
  A 1.09 1.09 0.0 0 1 46.94 34.57
  L 46.38 38.62
  A 1.09 1.09 0.0 0 0 48.07 39.67
  L 57.20 33.44
  A 1.09 1.09 0.0 0 1 57.82 33.25
  L 83.41 33.25
  A 1.09 1.09 0.0 0 0 84.50 32.16
  L 84.50 5.22
  A 1.09 1.09 0.0 0 0 83.41 4.13
  L 36.84 4.12
  A 1.09 1.09 0.0 0 0 35.75 5.21
  L 35.75 32.11
  A 1.09 1.09 0.0 0 0 36.82 33.20
  L 45.88 33.33
  Z"
/>
<rect fill="#000000" x="48.86" y="8.40" width="31.28" height="4.08" rx="2.00"/>
<circle fill="#000000" cx="42.27" cy="10.43" r="1.98"/>
<path fill="#000000" d="
  M 23.23 37.81
  Q 15.45 43.36 20.97 52.16
  A 0.79 0.79 0.0 0 1 20.74 53.24
  Q 13.38 58.28 13.01 67.42
  A 0.60 0.59 1.0 0 1 12.41 67.99
  L 7.81 67.99
  Q 7.13 68.00 7.13 67.31
  L 7.13 15.44
  A 2.94 2.93 90.0 0 1 10.06 12.50
  L 27.94 12.50
  A 0.69 0.68 90.0 0 1 28.62 13.19
  L 28.63 35.37
  A 0.73 0.73 0.0 0 1 28.10 36.07
  C 26.30 36.59 24.72 36.75 23.23 37.81
  Z"
/>
<path fill="#000000" d="
  M 44.44 67.33
  C 43.79 61.76 42.34 57.98 38.53 54.56
  A 0.62 0.61 -39.5 0 1 38.63 53.58
  L 60.17 40.53
  Q 60.63 40.25 61.17 40.25
  L 87.56 40.25
  A 4.06 4.06 0.0 0 0 91.62 36.19
  L 91.63 13.28
  A 0.68 0.68 0.0 0 1 92.19 12.61
  C 94.43 12.22 98.87 12.01 98.87 15.47
  Q 98.88 41.50 98.86 67.38
  A 0.62 0.62 0.0 0 1 98.24 68.00
  L 45.20 68.00
  Q 44.52 68.00 44.44 67.33
  Z"
/>
<rect fill="#000000" x="40.28" y="16.64" width="36.94" height="4.10" rx="2.02"/>
<rect fill="#000000" x="40.27" y="25.01" width="39.84" height="4.12" rx="2.01"/>
<circle fill="#000000" cx="28.66" cy="45.81" r="6.95"/>
<path fill="#000000" d="
  M 17.11 68.01
  A 1.11 1.11 0.0 0 1 16.00 66.90
  L 16.00 66.78
  A 12.65 12.52 89.9 0 1 28.50 54.11
  L 28.80 54.11
  A 12.65 12.52 89.9 0 1 41.34 66.74
  L 41.34 66.86
  A 1.11 1.11 0.0 0 1 40.23 67.97
  L 17.11 68.01
  Z"
/>
<path fill="#000000" d="
  M 106.00 71.01
  L 106.00 78.32
  Q 104.77 84.83 98.12 86.00
  L 7.76 86.00
  Q 1.11 84.70 0.00 78.20
  L 0.00 70.99
  L 42.49 70.82
  Q 42.99 70.81 42.99 71.31
  L 43.01 75.00
  A 2.64 2.63 89.9 0 0 45.64 77.63
  L 60.42 77.63
  A 2.57 2.57 0.0 0 0 62.99 75.08
  L 63.02 71.31
  A 0.51 0.50 0.0 0 1 63.53 70.81
  L 106.00 71.01
  Z"
/>
</svg>
