<?xml version="1.0" encoding="UTF-8" standalone="no"?>
<!DOCTYPE svg PUBLIC "-//W3C//DTD SVG 1.1//EN" "http://www.w3.org/Graphics/SVG/1.1/DTD/svg11.dtd">
<svg xmlns="http://www.w3.org/2000/svg" version="1.1" viewBox="0.00 0.00 94.00 99.00">
<path fill="#000000" d="
  M 2.37 0.00
  L 92.26 0.00
  Q 93.45 0.78 94.00 2.09
  L 94.00 62.32
  C 92.67 65.12 88.38 64.36 86.03 64.22
  Q 85.54 64.19 85.26 63.78
  C 84.04 61.96 82.84 60.10 81.07 58.85
  C 74.77 54.40 67.03 55.95 62.82 62.81
  C 61.85 64.39 60.65 64.66 59.00 64.12
  Q 58.50 63.96 58.26 63.50
  C 53.46 54.37 40.55 53.74 35.86 63.16
  A 2.41 2.41 0.0 0 1 31.81 63.57
  C 30.63 62.06 29.70 60.26 28.08 59.09
  Q 20.11 53.33 12.37 59.32
  C 10.89 60.47 9.95 62.19 8.81 63.76
  Q 8.52 64.17 8.01 64.19
  C 4.74 64.34 1.16 65.10 0.00 62.20
  L 0.00 2.43
  Q 0.34 0.43 2.37 0.00
  Z
  M 28.6100 54.8100
  A 22.00 20.90 90.0 0 0 49.5100 32.8100
  A 22.00 20.90 90.0 0 0 28.6100 10.8100
  A 22.00 20.90 90.0 0 0 7.7100 32.8100
  A 22.00 20.90 90.0 0 0 28.6100 54.8100
  Z
  M 86.31 17.33
  A 1.95 1.95 0.0 0 0 84.36 15.38
  L 58.62 15.38
  A 1.95 1.95 0.0 0 0 56.67 17.33
  L 56.67 17.43
  A 1.95 1.95 0.0 0 0 58.62 19.38
  L 84.36 19.38
  A 1.95 1.95 0.0 0 0 86.31 17.43
  L 86.31 17.33
  Z
  M 71.0401 26.6925
  A 1.91 1.91 0.0 0 0 69.1335 24.7792
  L 58.5935 24.7608
  A 1.91 1.91 0.0 0 0 56.6802 26.6675
  L 56.6799 26.8275
  A 1.91 1.91 0.0 0 0 58.5865 28.7408
  L 69.1265 28.7592
  A 1.91 1.91 0.0 0 0 71.0398 26.8525
  L 71.0401 26.6925
  Z
  M 84.37 36.08
  A 1.95 1.95 0.0 0 0 82.42 34.13
  L 58.66 34.13
  A 1.95 1.95 0.0 0 0 56.71 36.08
  L 56.71 36.18
  A 1.95 1.95 0.0 0 0 58.66 38.13
  L 82.42 38.13
  A 1.95 1.95 0.0 0 0 84.37 36.18
  L 84.37 36.08
  Z
  M 75.4901 45.4564
  A 1.93 1.93 0.0 0 0 73.5635 43.5230
  L 58.6235 43.4970
  A 1.93 1.93 0.0 0 0 56.6901 45.4236
  L 56.6899 45.5436
  A 1.93 1.93 0.0 0 0 58.6165 47.4770
  L 73.5565 47.5030
  A 1.93 1.93 0.0 0 0 75.4899 45.5764
  L 75.4901 45.4564
  Z"
/>
<path fill="#000000" d="
  M 28.66 34.01
  C 31.04 36.42 40.29 35.60 43.70 35.42
  A 1.42 1.42 0.0 0 1 45.16 37.15
  C 40.39 58.14 10.64 53.50 11.62 31.91
  Q 12.20 19.19 25.38 14.95
  A 1.44 1.43 -8.8 0 1 27.26 16.32
  C 27.25 19.87 26.27 31.62 28.66 34.01
  Z"
/>
<path fill="#000000" d="
  M 33.47 15.44
  Q 43.34 19.35 45.58 29.81
  A 1.40 1.39 84.0 0 1 44.22 31.50
  L 31.75 31.50
  A 0.63 0.63 0.0 0 1 31.12 30.87
  L 31.13 17.03
  Q 31.14 14.52 33.47 15.44
  Z"
/>
<ellipse fill="#000000" cx="0.00" cy="0.00" transform="translate(20.35,69.59) rotate(89.6)" rx="9.27" ry="8.77"/>
<ellipse fill="#000000" cx="0.00" cy="0.00" transform="translate(47.03,69.60) rotate(90.4)" rx="9.27" ry="8.77"/>
<ellipse fill="#000000" cx="0.00" cy="0.00" transform="translate(73.72,69.59) rotate(89.7)" rx="9.27" ry="8.77"/>
<path fill="#000000" d="
  M 91.74 99.00
  L 2.02 99.00
  Q -0.29 97.12 1.70 95.35
  Q 2.06 95.04 2.53 95.03
  L 4.97 94.97
  A 0.55 0.55 0.0 0 0 5.49 94.60
  C 8.25 86.93 11.33 81.68 20.50 81.78
  Q 28.85 81.87 32.89 88.85
  A 0.93 0.93 0.0 0 0 34.50 88.85
  C 40.01 79.19 54.25 79.21 59.56 89.03
  A 0.78 0.77 46.6 0 0 60.90 89.07
  Q 66.11 80.53 76.27 81.85
  Q 82.50 82.66 85.89 88.26
  C 86.99 90.08 87.64 92.47 88.50 94.67
  A 0.65 0.64 -16.9 0 0 89.24 95.06
  Q 91.16 94.63 92.72 95.64
  A 1.18 1.17 14.5 0 1 93.26 96.55
  Q 93.37 98.38 91.74 99.00
  Z"
/>
</svg>
