<svg width="32" height="32" viewBox="0 0 32 32" fill="none" xmlns="http://www.w3.org/2000/svg">
<path d="M29.9671 15.067C29.8024 12.7653 29.0774 10.5396 27.856 8.58579C26.6345 6.63202 24.954 5.01012 22.9625 3.86287C20.9709 2.71562 18.7294 2.07821 16.4351 2.00675C14.1409 1.93529 11.8644 2.43198 9.80606 3.45309C7.74769 4.4742 5.97057 5.98842 4.63115 7.86242C3.29174 9.73643 2.43112 11.9128 2.12504 14.1998C1.81897 16.4869 2.07684 18.8145 2.87595 20.9778C3.67506 23.1411 4.9909 25.0737 6.70763 26.6054L7.47274 27.2593L7.93181 27.567L8.58216 27.99L9.61506 28.49C11.3894 29.3587 13.3178 29.8638 15.2881 29.976C17.2584 30.0883 19.2312 29.8054 21.0918 29.1439C23.8692 28.0534 26.2279 26.0999 27.8243 23.5679C29.4207 21.036 30.1714 18.0577 29.9671 15.067ZM16.042 26.7977C16.9803 25.7389 17.4978 24.3697 17.4957 22.9516V22.4131C18.5508 22.0321 19.4629 21.3323 20.1067 20.4095C20.7505 19.4868 21.0946 18.3864 21.0918 17.2593V13.9516C21.0918 13.8304 21.068 13.7103 21.0219 13.5984C20.9757 13.4864 20.9081 13.3846 20.8229 13.2989C20.7376 13.2132 20.6364 13.1452 20.525 13.0988C20.4136 13.0524 20.2942 13.0285 20.1736 13.0285H19.5615V8.64391C19.5615 8.26649 19.4124 7.90452 19.147 7.63765C18.8815 7.37077 18.5215 7.22084 18.1461 7.22084C17.7707 7.22084 17.4106 7.37077 17.1452 7.63765C16.8797 7.90452 16.7306 8.26649 16.7306 8.64391V13.0285H15.2386V8.64391C15.2386 8.26649 15.0895 7.90452 14.8241 7.63765C14.5586 7.37077 14.1986 7.22084 13.8232 7.22084C13.4508 7.23057 13.0964 7.38362 12.833 7.64842C12.5696 7.91322 12.4174 8.26956 12.4077 8.64391V13.0285H11.6809C11.4374 13.0285 11.2038 13.1258 11.0316 13.2989C10.8595 13.472 10.7627 13.7068 10.7627 13.9516V17.2593C10.7516 18.4345 11.1178 19.582 11.807 20.5312C12.4962 21.4805 13.4716 22.181 14.5883 22.5285V23.067C14.5869 23.5802 14.4475 24.0835 14.1849 24.5236C13.9222 24.9637 13.5461 25.3242 13.0963 25.567C12.5467 25.9036 11.8937 26.0267 11.2601 25.9131L10.2272 25.5285C8.75915 24.6355 7.51804 23.4112 6.60203 21.9526C5.68603 20.4939 5.12027 18.841 4.94954 17.1245C4.77881 15.408 5.0078 13.6752 5.61837 12.063C6.22895 10.4509 7.20435 9.00381 8.46739 7.83622C9.57198 6.79409 10.8811 5.9957 12.3107 5.4923C13.7404 4.98891 15.2589 4.79163 16.7689 4.91315C19.3443 5.08067 21.7794 6.15182 23.6496 7.93977C25.5199 9.72772 26.7065 12.119 27.0024 14.6965C27.2984 17.2741 26.685 19.8743 25.2693 22.0436C23.8535 24.213 21.7252 25.8138 19.2555 26.567C18.2018 26.8046 17.1186 26.8824 16.042 26.7977Z" fill="#F0DF00"/>
</svg>
