<svg width="38" height="27" viewBox="0 0 38 27" fill="none" xmlns="http://www.w3.org/2000/svg">
<path d="M26.6742 5.11644C25.2494 3.6655 23.5518 2.51068 21.679 1.71844C19.8061 0.926209 17.7952 0.512202 15.7617 0.500266C13.7282 0.488329 11.7124 0.878689 9.83036 1.64888C7.94834 2.41908 6.23718 3.5539 4.79548 4.98801C3.35378 6.42213 2.20999 8.12721 1.42988 10.0051C0.649763 11.8831 0.248797 13.8967 0.250003 15.9303C0.251208 17.9638 0.654561 19.977 1.4369 21.854C2.21924 23.731 3.36507 25.4347 4.80847 26.8671L26.6742 5.11644Z" fill="#A1489B"/>
<path d="M33.8523 0.541793C36.4584 3.47212 37.85 7.28521 37.7444 11.2053C37.6388 15.1254 36.0436 18.8579 33.2836 21.6437C30.5235 24.4294 26.8059 26.0589 22.887 26.2009C18.9681 26.3428 15.1422 24.9863 12.1879 22.4076L33.8523 0.541793Z" fill="#A1489B"/>
</svg>
