<svg width="32" height="32" viewBox="0 0 32 32" fill="none" xmlns="http://www.w3.org/2000/svg">
<path fill-rule="evenodd" clip-rule="evenodd" d="M10.9747 16.6492C7.92069 17.3174 9.06238 21.1035 11.9166 20.853C14.7708 20.6024 13.2581 16.5935 10.9747 16.6492ZM11.2031 17.735C11.7739 17.735 12.4589 18.3753 12.3447 18.8207C11.831 21.02 8.71987 18.4309 11.2031 17.735Z" fill="#007960"/>
<path fill-rule="evenodd" clip-rule="evenodd" d="M9.7305 13.5426C2.05311 16.0094 7.18092 26.8692 14.1994 23.6935C19.4705 20.5461 15.4313 11.8413 9.7305 13.5426ZM11.9936 22.7578C10.9968 22.8372 10.0054 22.5504 9.2087 21.9522C8.41198 21.3541 7.8658 20.4863 7.67445 19.5148C7.48311 18.5433 7.66001 17.5361 8.17138 16.6855C8.68275 15.8349 9.49274 15.2006 10.4467 14.9036C15.1734 13.7694 17.4079 22.1623 11.9936 22.7578Z" fill="#007960"/>
<path fill-rule="evenodd" clip-rule="evenodd" d="M27.463 10.4112C27.6065 11.0587 27.6193 11.728 27.5008 12.3804C28.0541 12.5617 28.5556 12.8721 28.9629 13.2856C29.3703 13.699 29.6716 14.2034 29.8416 14.7564C30.0116 15.3093 30.0454 15.8947 29.94 16.4633C29.8345 17.0319 29.5931 17.567 29.2359 18.0238C29.9623 19.5162 30.1336 21.2152 29.7194 22.8207C29.4421 23.8861 28.8855 24.8598 28.1061 25.6428C27.3268 26.4258 26.3525 26.9903 25.2821 27.279C24.529 27.4063 23.7596 27.4063 23.0065 27.279C22.5789 27.486 22.1156 27.6104 21.6411 27.6458C20.9551 27.6478 20.2866 27.4301 19.7353 27.025C19.416 27.3591 19.0256 27.6185 18.5927 27.7844C18.1598 27.9504 17.695 28.0187 17.2322 27.9844C16.3693 28.0661 15.5068 27.8246 14.8144 27.3072C12.9831 27.9622 10.9874 28.0117 9.12543 27.4483C8.55673 27.3121 7.95423 27.2598 7.3587 27.208C6.22662 27.1096 5.11976 27.0135 4.31826 26.3478C3.45599 25.5077 3.41056 24.8413 3.36079 24.1112C3.31862 23.4926 3.27333 22.8284 2.72535 21.9742C2.68039 21.8515 2.61323 21.7465 2.54842 21.6452C2.44923 21.4901 2.35557 21.3436 2.35557 21.1559C1.88148 19.5531 1.88148 17.8489 2.35557 16.2462V15.7382C2.98065 13.8838 4.19393 12.2797 5.81407 11.1659C7.43421 10.0521 9.37421 9.48828 11.3441 9.55874C11.5993 9.53055 11.8569 9.53055 12.1121 9.55874C12.1269 9.06791 12.2706 8.5894 12.529 8.17053C12.7873 7.75165 13.1514 7.40691 13.5852 7.17037C14.019 6.93384 14.5075 6.81369 15.0024 6.82182C15.4974 6.82996 15.9816 6.96608 16.4073 7.21673C16.3961 6.98269 16.445 6.74966 16.5495 6.53953C16.7649 5.80689 17.2141 5.16332 17.8295 4.70542C18.445 4.24753 19.1936 4 19.9629 4C20.7322 4 21.4808 4.24753 22.0963 4.70542C22.7117 5.16332 23.1609 5.80689 23.3763 6.53953C24.0349 6.65192 24.6646 6.89254 25.229 7.24753C25.7934 7.60251 26.2814 8.06483 26.6649 8.60782C27.0483 9.15081 27.3196 9.76373 27.463 10.4112ZM7.48244 25.0382C7.98677 25.2481 8.63399 25.5175 9.09698 25.6706C10.4709 26.1169 11.9476 26.1474 13.3391 25.7583C14.7306 25.3691 15.9738 24.5779 16.9103 23.4854C17.8469 22.3929 18.4345 21.0486 18.5982 19.6237C18.7619 18.1988 18.4943 16.7578 17.8295 15.4843C11.913 5.63658 -1.22847 15.3714 5.82583 24.034C5.7405 24.4573 6.65073 24.7677 6.70762 24.7395C6.73365 24.7265 7.05726 24.8612 7.48244 25.0382Z" fill="#007960"/>
</svg>
