<svg width="32" height="32" viewBox="0 0 32 32" fill="none" xmlns="http://www.w3.org/2000/svg">
<path d="M10.5046 27.4303L11.2532 27.8636C9.79829 25.0141 11.7961 22.2983 14.072 19.2043C16.8152 15.4752 19.9624 11.1967 17.9555 5.4726C17.8513 5.21301 17.7323 4.95978 17.599 4.7142L15.8165 1.5L13.6062 5.11146L12.9288 6.30324L9.1855 12.3344C9.03462 12.5984 8.87847 12.8624 8.7211 13.1284C8.46943 13.5539 8.21466 13.9846 7.97338 14.429C7.36568 15.5628 6.92147 16.779 6.6543 18.0405C6.3293 19.8152 6.52015 21.6474 7.20367 23.3143C7.88719 24.9812 9.03394 26.4111 10.5046 27.4303Z" fill="#FF7276"/>
<path d="M16.3897 30.4996C18.0879 30.4646 19.7455 29.9629 21.1882 29.0475C22.6831 28.1028 23.8781 26.7361 24.6287 25.1125C25.3794 23.489 25.6535 21.6782 25.418 19.8989C25.2027 18.6318 24.795 17.4069 24.2095 16.2685C23.938 15.6215 23.6153 15.0268 23.2848 14.4178C23.2259 14.3092 23.1668 14.2001 23.1076 14.0903L20.8683 10.0242C20.6964 14.2666 19.074 18.3131 16.2831 21.46C13.9372 24.5821 12.551 26.6514 13.5818 28.7207C13.8337 29.2609 14.2323 29.7157 14.7301 30.0311C15.228 30.3464 15.804 30.5091 16.3897 30.4996Z" fill="#FF7276"/>
</svg>
