<?xml version="1.0" encoding="UTF-8"?>
<svg id="_Слой_2" data-name="Слой 2" xmlns="http://www.w3.org/2000/svg" viewBox="0 0 18.44 24.22">
  <defs>
    <style>
      .cls-1 {
        fill: #2c3c90;
        stroke-width: 0px;
      }
    </style>
  </defs>
  <g id="_Слой_1-2" data-name="Слой 1">
    <path class="cls-1" d="M18.43,20.8l-2.28-17.96c-.06-.62-.6-1.12-1.2-1.12h-.75V.65c0-.36-.29-.65-.65-.65H4.88c-.36,0-.64.29-.64.65v1.06h-.75c-.6,0-1.13.5-1.2,1.12L.02,20.8c-.12,1.22.48,1.71,1.34,1.71h2.88v1.06c0,.36.29.65.64.65h8.68c.36,0,.65-.29.65-.65v-1.06h2.87c.87,0,1.46-.49,1.34-1.71"/>
  </g>
</svg>