<svg width="32" height="32" viewBox="0 0 32 32" fill="none" xmlns="http://www.w3.org/2000/svg">
<path d="M27.6556 24.7998H19.0611V26.32H24.6194V28H7.54167V26.32H13.0194V24.7998H4.34442C3.97244 24.8041 3.60329 24.7354 3.25838 24.5977C2.91346 24.46 2.59963 24.2561 2.33506 23.9978C2.0705 23.7394 1.86046 23.4318 1.71711 23.0927C1.57377 22.7535 1.49997 22.3897 1.5 22.0222V6.80991C1.5 6.06468 1.79968 5.34996 2.33311 4.823C2.86654 4.29604 3.59003 4 4.34442 4H27.6556C28.41 4 29.1335 4.29604 29.6669 4.823C30.2003 5.34996 30.5 6.06468 30.5 6.80991V22.0222C30.5 22.3897 30.4262 22.7535 30.2829 23.0927C30.1395 23.4318 29.9295 23.7394 29.6649 23.9978C29.4004 24.2561 29.0865 24.46 28.7416 24.5977C28.3967 24.7354 28.0276 24.8041 27.6556 24.7998Z" fill="#007DA5"/>
</svg>
