<svg width="48" height="48" viewBox="0 0 48 48" fill="none" xmlns="http://www.w3.org/2000/svg">
<path d="M39.6951 7.80728C39.6642 7.80728 39.6332 7.80728 39.5713 7.80728C33.9681 7.68598 30.1295 6.35175 24.712 1.74259C24.4953 1.59097 24.2477 1.5 24 1.5C23.7523 1.5 23.5047 1.59097 23.288 1.74259C17.8705 6.35175 14.0319 7.68598 8.42871 7.80728C7.90244 7.80728 7.5 8.23181 7.5 8.71698C7.5 11.3551 7.5 19.2089 7.5 25.9104C7.5 34.2797 13.227 39.6772 23.2261 46.2877C23.4428 46.4394 23.7214 46.5 24 46.5C24.2786 46.5 24.5572 46.4394 24.7739 46.2877C34.4634 39.9198 40.1285 34.6435 40.469 26.6988C40.469 26.4259 40.5 26.1833 40.5 25.9104C40.5 19.1786 40.5 11.3248 40.5 8.71698C40.5 8.14084 40.5 7.80728 40.5 7.80728C40.2214 7.80728 39.9428 7.80728 39.6951 7.80728ZM11.2148 25.9407V11.2945C15.9512 10.8093 19.728 9.20216 24 5.92722V42.4063C14.4962 35.9778 11.2148 31.7022 11.2148 25.9407Z" fill="#796D1D"/>
</svg>
