<?xml version="1.0" encoding="UTF-8"?>
<svg id="_Слой_2" data-name="Слой 2" xmlns="http://www.w3.org/2000/svg" viewBox="0 0 53.33 47.2">
  <defs>
    <style>
      .cls-1 {
        fill: #3e3e3e;
        stroke-width: 0px;
      }
    </style>
  </defs>
  <g id="_Слой_1-2" data-name="Слой 1">
    <path class="cls-1" d="M4.22,37.75c1.03-.51,1.99-1.02,2.87-1.51l1.17,2.35-4.19,2.08,1.68,3.38,4.19-2.08,1.17,2.35c-1.06.46-2.04.92-2.94,1.36-.9.45-1.86.96-2.86,1.52l-4.01-8.08c.92-.4,1.9-.86,2.94-1.37"/>
    <path class="cls-1" d="M3.28,31.42c-.05-.62-.11-1.08-.18-1.38-.06-.3-.15-.51-.26-.63-.11-.11-.26-.16-.46-.15-.2.02-.34.09-.43.21-.09.12-.14.34-.15.65-.01.31.01.78.07,1.41l.13,1.54,1.41-.12-.13-1.53ZM.05,30.91c-.12-1.48,0-2.52.37-3.13.37-.61.93-.95,1.69-1.02.52-.05.97.03,1.36.23.39.2.7.58.96,1.14.25.56.42,1.35.51,2.36l.2,2.31,1.57-.13.23,2.74c-1.16.04-2.23.1-3.24.18-1,.08-2.08.21-3.22.36l-.23-2.74h0l-.2-2.31Z"/>
    <path class="cls-1" d="M6.4,19.2c-.11-.43-.42-.73-.92-.92-.49-.18-.92-.14-1.28.11-.36.25-.69.77-.97,1.54-.28.77-.36,1.36-.25,1.79.11.43.42.73.91.91.5.18.92.15,1.29-.11.36-.25.69-.76.96-1.53.28-.77.37-1.37.26-1.8M5.73,24.84c-.83.55-1.74.64-2.74.27-.99-.36-1.63-1.02-1.91-1.97-.28-.95-.13-2.23.45-3.83.59-1.61,1.3-2.69,2.12-3.23.83-.55,1.74-.64,2.73-.27,1.01.37,1.65,1.03,1.93,1.97.28.95.12,2.23-.47,3.85-.58,1.59-1.29,2.67-2.11,3.22"/>
    <path class="cls-1" d="M13.07,9.31c.04-.24-.02-.44-.18-.61-.31-.32-.8-.26-1.47.18l.53.57c.15.17.37.41.68.73.26-.34.4-.63.44-.87M9.58,12.62c.24-.02.54-.15.88-.39l-.69-.71-.54-.57c-.48.64-.56,1.13-.25,1.45.16.16.35.23.59.21M13.86,11.46l.57.55-2.21,2.1-.55-.59c-1.13.91-2.1,1.44-2.91,1.58-.81.14-1.48-.05-1.99-.59-.51-.53-.68-1.2-.51-2,.17-.8.75-1.75,1.72-2.84l-.58-.58,2.21-2.1c.11.13.3.33.56.6,1.14-.92,2.12-1.46,2.94-1.6.82-.14,1.48.05,1.99.58,1.08,1.12.66,2.74-1.24,4.87"/>
    <path class="cls-1" d="M19.82,6.89c2.68-.9,4.62-1.58,5.81-2.03.03.25.08.5.15.75.07.25.17.56.29.93l-8.23,2.73c-.31-1.12-.62-2.15-.93-3.11-.32-.96-.68-1.97-1.1-3.05L24.02.39l.51,1.54-5.73,1.9.27.81c.34-.11.84-.27,1.51-.49,1.12-.37,2.28-.77,3.47-1.2l.48,1.46c-1.21.36-2.38.73-3.5,1.1-.66.22-1.17.39-1.5.51l.29.88Z"/>
    <path class="cls-1" d="M27.55,5.62c-.75-.63-1.08-1.48-.99-2.54.09-1.06.55-1.87,1.4-2.42.84-.55,2.1-.76,3.78-.62,2.34.19,3.86.96,4.55,2.32-.68.13-1.49.34-2.41.64-.19-.35-.51-.62-.96-.82-.45-.2-.92-.32-1.4-.36-.71-.06-1.25.05-1.63.32-.37.27-.58.63-.61,1.06-.04.47.12.88.47,1.21.35.33.91.53,1.68.59.62.05,1.11,0,1.49-.12.38-.13.67-.37.86-.71.59.31,1.34.67,2.26,1.07-.43.69-1.09,1.14-1.98,1.35-.89.21-1.85.28-2.87.19-1.68-.14-2.89-.52-3.63-1.16"/>
    <path class="cls-1" d="M37.38,7.14c-.29-.94-.11-1.83.53-2.67.65-.85,1.47-1.28,2.48-1.29,1.01-.01,2.18.49,3.52,1.51,1.87,1.42,2.73,2.89,2.58,4.4-.64-.26-1.44-.51-2.38-.77.03-.4-.09-.8-.36-1.21-.27-.41-.6-.76-.99-1.05-.57-.43-1.08-.64-1.54-.61-.46.03-.82.22-1.09.57-.29.38-.37.8-.26,1.27.12.47.48.93,1.1,1.4.49.37.93.61,1.32.7.39.09.76.05,1.11-.13.33.58.77,1.29,1.33,2.12-.73.35-1.53.37-2.4.07-.86-.3-1.71-.76-2.52-1.38-1.34-1.02-2.15-2-2.44-2.93"/>
    <path class="cls-1" d="M50.59,13.07l-4.71,1.71,5.66.63,1.54,3.81c-.95.33-1.96.71-3.02,1.14-1.07.43-2.06.86-2.97,1.29l-1.08-2.66,4.59-1.65-5.53-.67-1.5-3.7c1.09-.38,2.1-.76,3.04-1.14.93-.38,1.91-.81,2.96-1.3l1.03,2.53Z"/>
    <path class="cls-1" d="M48.55,28.66c.21.39.58.62,1.11.68.52.06.92-.08,1.22-.41.29-.33.49-.91.58-1.73.09-.81.03-1.42-.18-1.81-.21-.39-.58-.62-1.09-.67-.52-.06-.93.08-1.23.41-.29.33-.48.91-.58,1.72-.09.82-.04,1.43.17,1.82M47.88,23c.67-.73,1.54-1.04,2.6-.91,1.05.12,1.82.61,2.31,1.47.5.86.65,2.14.46,3.84-.19,1.71-.63,2.93-1.3,3.65-.68.73-1.54,1.03-2.58.91-1.06-.12-1.84-.61-2.33-1.47-.49-.86-.64-2.14-.45-3.86.19-1.69.62-2.91,1.3-3.64"/>
    <path class="cls-1" d="M44.83,42.93c-.72-.7-1.52-1.43-2.39-2.19-.87-.76-1.7-1.45-2.49-2.07l1.73-1.98,1.83,1.6,2.7-3.09-1.83-1.6,1.73-1.97c.83.8,1.62,1.54,2.38,2.2.76.66,1.59,1.35,2.5,2.06l-1.73,1.98-1.83-1.6-2.7,3.09,1.83,1.6-1.73,1.97Z"/>
    <path class="cls-1" d="M34.18,43.15c.44.53.88,1.06,1.33,1.58l.41.49c.11-.59.27-1.48.47-2.67l-2.21.59ZM32.32,40.88c.22.29.52.65.88,1.09l3.44-.92.21-1.38,2.71-.73-1.34,7.07-3.97,1.07-4.72-5.44,2.79-.75Z"/>
    <path class="cls-1" d="M20.79,36.65l2.4,1.49-2.5,4.02,2.12,1.32.28-.43c.24-.38.46-.71.66-.99.2-.28.43-.54.69-.8.47-.47,1.06-.72,1.79-.73.72-.01,1.54.27,2.47.84l-.92,1.48c-.27-.11-.52-.14-.75-.09-.23.05-.48.21-.74.47-.21.21-.59.76-1.14,1.64l-.95,1.55-6.83-4.26,3.42-5.5Z"/>
    <path class="cls-1" d="M13.51,34.38l4.97-.61-5.38-1.88-.66-4.05c1-.11,2.07-.26,3.2-.44,1.14-.19,2.2-.38,3.19-.6l.46,2.83-4.84.58,5.25,1.89.64,3.94c-1.15.13-2.22.27-3.21.43-.99.16-2.05.36-3.18.6l-.44-2.7Z"/>
    <path class="cls-1" d="M21.49,17.52c-.82.83-1.61,1.65-2.36,2.45l3.4,3.18-1.91,2.04-3.4-3.18c-.75.81-1.51,1.65-2.28,2.51l-1.37-1.28,6.55-7,1.37,1.28Z"/>
    <path class="cls-1" d="M26.42,19.57c2.82-.23,4.86-.43,6.12-.58-.03.25-.04.5-.04.76.01.26.03.58.06.98l-8.64.68c-.03-1.16-.09-2.23-.17-3.24-.08-1-.19-2.08-.34-3.22l8.65-.68.13,1.61-6.02.47.07.85c.36-.02.88-.06,1.58-.12,1.18-.09,2.4-.21,3.66-.34l.12,1.53c-1.26.06-2.49.14-3.66.24-.7.06-1.22.1-1.58.13l.07.93Z"/>
    <path class="cls-1" d="M41.78,23.73c-.78-.87-1.55-1.71-2.3-2.51l-3.39,3.2-1.91-2.03,3.39-3.2c-.77-.8-1.55-1.61-2.37-2.43l1.36-1.29,6.58,6.97-1.36,1.29Z"/>
  </g>
</svg>