<?xml version="1.0" encoding="UTF-8"?>
<svg id="_Слой_2" data-name="Слой 2" xmlns="http://www.w3.org/2000/svg" viewBox="0 0 23.99 23.3">
  <defs>
    <style>
      .cls-1 {
        fill: #2c3c90;
        stroke-width: 0px;
      }
    </style>
  </defs>
  <g id="_Слой_1-2" data-name="Слой 1">
    <path class="cls-1" d="M23.99,10.28C23.99,4.6,19.45,0,13.86,0c-2.66,0-5.07,1.05-6.88,2.75L5.47.07c-.14.07-.27.14-.4.22C.22,3.13-1.44,9.42,1.36,14.33c1.33,2.34,3.43,3.93,5.78,4.67l-1.52,2.68c.13.08.26.16.39.24,4.84,2.83,11.04,1.15,13.83-3.77,1.33-2.34,1.64-4.98,1.09-7.42h3.05c0-.15,0-.31,0-.46"/>
  </g>
</svg>