<?xml version="1.0" encoding="UTF-8"?>
<svg id="_Слой_2" data-name="Слой 2" xmlns="http://www.w3.org/2000/svg" viewBox="0 0 218.34 220.85">
  <defs>
    <style>
      .cls-1 {
        stroke: #1d1d1b;
        stroke-miterlimit: 10;
        stroke-width: .44px;
      }

      .cls-1, .cls-2 {
        fill: #2c3c90;
      }

      .cls-2 {
        stroke-width: 0px;
      }
    </style>
  </defs>
  <g id="_Слой_1-2" data-name="Слой 1">
    <path class="cls-1" d="M151.68,68.03l-24.43,24.81M177.51,131.33h-34.56M151.68,194.63l-24.43-24.81M89.34,220.85v-35.08M26.99,194.63l24.43-24.81M1.16,131.33h34.55M26.99,68.03l24.43,24.81M89.34,41.82v35.08"/>
    <g>
      <path class="cls-2" d="M15.04,30.62c1.26,1.5,2.48,2.89,3.64,4.14l-3.37,2.91-5.11-6.11-4.85,4.18,5.11,6.11-3.38,2.91c-1.18-1.58-2.32-3.02-3.42-4.33-1.1-1.31-2.32-2.69-3.65-4.13l11.6-10c1.03,1.37,2.18,2.81,3.44,4.32"/>
      <path class="cls-2" d="M22.35,19.19c2.12-1.33,3.79-1.95,5-1.86,1.21.09,2.14.69,2.82,1.8.46.76.69,1.52.68,2.26,0,.74-.34,1.52-.99,2.35-.65.82-1.71,1.69-3.17,2.61l-3.33,2.09,1.39,2.29-3.94,2.47c-.94-1.74-1.85-3.34-2.74-4.81-.89-1.47-1.89-3.01-3-4.64l3.94-2.47h0s3.34-2.08,3.34-2.08ZM24.04,24.53c.89-.56,1.53-1,1.94-1.34.41-.33.66-.63.74-.89.09-.26.05-.53-.13-.82-.18-.28-.39-.45-.64-.49-.25-.04-.62.05-1.09.28-.47.22-1.17.62-2.07,1.19l-2.21,1.39,1.25,2.06,2.21-1.38Z"/>
      <path class="cls-2" d="M36.78,22.07c-1.64-.4-2.81-1.44-3.51-3.13-.7-1.67-.62-3.25.23-4.72.85-1.48,2.61-2.78,5.27-3.93,2.67-1.14,4.82-1.52,6.45-1.11,1.63.41,2.8,1.45,3.5,3.12.71,1.7.64,3.28-.21,4.74-.85,1.46-2.61,2.77-5.3,3.92-2.65,1.14-4.79,1.51-6.43,1.11M44.53,16.29c.4-.64.42-1.39.07-2.23-.35-.83-.89-1.32-1.62-1.48-.73-.16-1.74.04-3.03.59-1.27.55-2.1,1.14-2.5,1.79-.4.65-.42,1.39-.08,2.21.35.84.89,1.33,1.62,1.5.74.16,1.74-.04,3.01-.58,1.28-.55,2.12-1.15,2.53-1.79"/>
      <path class="cls-2" d="M63.98,12.67l.35,1.32-5.01,1.21-.29-1.35c-2.43.37-4.3.32-5.6-.17-1.3-.49-2.1-1.36-2.39-2.6-.29-1.23.04-2.36.98-3.41.94-1.04,2.58-1.94,4.93-2.72l-.34-1.36,5.01-1.21c.06.29.15.74.3,1.37,2.45-.38,4.34-.32,5.65.17,1.31.5,2.11,1.36,2.4,2.59.61,2.6-1.39,4.66-5.99,6.16M56.76,10.69c.37.17.91.23,1.62.19l-.39-1.66-.31-1.31c-1.25.54-1.79,1.19-1.61,1.94.09.38.31.65.68.83M64.68,8.8c.26-.33.35-.68.26-1.07-.18-.75-.94-1.09-2.3-1l.28,1.31c.08.37.19.93.37,1.67.67-.29,1.13-.59,1.39-.92"/>
      <path class="cls-2" d="M77.67,9.04c4.75-.37,8.2-.68,10.34-.94-.06.43-.08.86-.07,1.3.01.45.04,1,.09,1.68l-14.6,1.08c-.04-1.98-.13-3.83-.25-5.55-.12-1.72-.31-3.56-.55-5.53l14.59-1.09.2,2.76-10.16.75.1,1.47c.6-.03,1.49-.09,2.67-.18,1.99-.15,4.04-.33,6.17-.55l.19,2.62c-2.13.1-4.2.22-6.19.37-1.18.08-2.07.16-2.67.21l.11,1.59Z"/>
      <path class="cls-2" d="M91.87,9.84c-1.27-1.07-1.84-2.51-1.72-4.33.13-1.82.9-3.22,2.31-4.17,1.41-.96,3.53-1.34,6.36-1.14,3.95.29,6.52,1.58,7.71,3.89-1.15.23-2.5.61-4.06,1.13-.32-.6-.86-1.06-1.62-1.39-.76-.33-1.55-.53-2.37-.58-1.2-.09-2.12.1-2.74.57-.62.47-.96,1.08-1.01,1.83-.05.81.21,1.51.81,2.06.59.56,1.55.89,2.85.98,1.04.08,1.87,0,2.51-.24.63-.23,1.11-.65,1.44-1.24.99.52,2.27,1.12,3.84,1.79-.71,1.18-1.82,1.97-3.32,2.35-1.5.38-3.11.51-4.84.38-2.83-.21-4.88-.85-6.15-1.92"/>
      <path class="cls-2" d="M109.37,11.51c-1.1-1.25-1.46-2.76-1.07-4.53.39-1.78,1.35-3.04,2.89-3.78,1.54-.74,3.7-.79,6.46-.17,3.87.88,6.23,2.54,7.07,5-1.17.05-2.57.23-4.19.51-.23-.64-.7-1.17-1.41-1.62-.71-.44-1.46-.75-2.25-.93-1.18-.27-2.11-.22-2.8.16-.68.37-1.11.93-1.27,1.66-.18.8-.01,1.52.5,2.16.51.64,1.4,1.11,2.68,1.4,1.01.23,1.85.28,2.51.14.66-.14,1.2-.47,1.61-1,.91.66,2.09,1.44,3.53,2.35-.88,1.06-2.08,1.67-3.62,1.83-1.54.15-3.15.04-4.84-.34-2.77-.63-4.7-1.57-5.81-2.82"/>
      <path class="cls-2" d="M133.05,7.88l-3.37,7.88,7.33-6.31,6.46,2.56c-.7,1.58-1.4,3.28-2.1,5.11-.71,1.84-1.33,3.59-1.86,5.22l-4.51-1.78,3.3-7.66-7.24,6.1-6.28-2.48c.8-1.81,1.51-3.51,2.13-5.12.61-1.6,1.23-3.33,1.84-5.21l4.3,1.7Z"/>
      <path class="cls-2" d="M144.32,23.33c-.66-1.57-.54-3.15.38-4.74.9-1.56,2.19-2.44,3.86-2.63,1.67-.18,3.76.47,6.25,1.95,2.5,1.49,4.08,3.02,4.73,4.59.65,1.58.53,3.14-.37,4.71-.92,1.59-2.21,2.48-3.87,2.66-1.66.18-3.75-.48-6.26-1.97-2.48-1.48-4.05-3-4.71-4.58M153.51,26.2c.75-.05,1.35-.48,1.81-1.27.45-.77.52-1.51.2-2.2-.31-.69-1.07-1.4-2.27-2.12-1.19-.71-2.16-1.03-2.91-.97-.75.06-1.35.48-1.79,1.25-.45.78-.52,1.52-.21,2.22.31.69,1.06,1.39,2.25,2.11,1.2.71,2.17,1.04,2.92.99"/>
      <path class="cls-2" d="M177.04,34.73c-1.14,1.28-2.32,2.68-3.55,4.22-1.23,1.54-2.35,3-3.35,4.39l-3.43-2.84,2.59-3.23-5.37-4.44-2.59,3.23-3.43-2.84c1.31-1.47,2.5-2.87,3.57-4.21,1.07-1.33,2.18-2.8,3.34-4.4l3.43,2.84-2.59,3.23,5.37,4.45,2.59-3.23,3.43,2.84Z"/>
      <path class="cls-2" d="M179.74,53.87c.27-.57.58-1.3.96-2.19l-4.02-4.53-2.23.75-3.17-3.56,11.66-3.46,4.64,5.23-4.57,11.44-3.27-3.68ZM181.72,49.27c.46-1.08.92-2.17,1.37-3.26l.43-1.01c-.97.29-2.43.74-4.38,1.35l2.58,2.91Z"/>
      <path class="cls-2" d="M192.72,72.52l-2.6-4.06,6.7-4.42-2.3-3.59-.75.47c-.64.42-1.21.78-1.72,1.06-.51.28-1.05.53-1.63.74-1.06.39-2.14.34-3.26-.16-1.11-.51-2.17-1.54-3.17-3.1l2.46-1.63c.34.37.69.6,1.08.69.39.08.88.02,1.47-.19.48-.18,1.44-.75,2.91-1.71l2.57-1.72,7.4,11.57-9.16,6.05Z"/>
      <path class="cls-2" d="M206.2,75.35l-7.86,3.16,9.58.79,2.79,6.44c-1.59.61-3.27,1.31-5.04,2.11-1.78.8-3.43,1.58-4.95,2.36l-1.95-4.5,7.67-3.05-9.37-.87-2.72-6.27c1.83-.7,3.51-1.4,5.06-2.1,1.55-.69,3.19-1.48,4.93-2.37l1.86,4.29Z"/>
      <path class="cls-2" d="M212.74,104.46c-.44-1.79-.87-3.52-1.32-5.2l-7.58,2.12-1.15-4.24,7.58-2.12c-.47-1.68-.96-3.39-1.49-5.13l3.05-.85,3.95,14.56-3.05.86Z"/>
      <path class="cls-2" d="M208.85,112.05c.61,4.42,1.09,7.61,1.44,9.59-.41-.03-.84-.02-1.28.02-.43.04-.98.11-1.64.2l-1.81-13.54c1.94-.17,3.76-.37,5.44-.61,1.68-.23,3.48-.53,5.4-.88l1.81,13.54-2.7.37-1.26-9.43-1.43.2c.06.56.17,1.38.31,2.48.25,1.85.53,3.76.85,5.72l-2.57.35c-.2-1.99-.43-3.9-.68-5.75-.14-1.09-.26-1.91-.34-2.47l-1.55.21Z"/>
      <path class="cls-2" d="M215.18,138.77c.04-1.81.06-3.57.07-5.28l-7.85.03-.02-4.33,7.85-.03c-.01-1.72-.05-3.47-.11-5.26h3.16s.06,14.85.06,14.85h-3.16Z"/>
    </g>
  </g>
</svg>