<svg width="32" height="32" viewBox="0 0 32 32" fill="none" xmlns="http://www.w3.org/2000/svg">
<path d="M21.5067 2H23.4667V8.25333H21.5067V2Z" fill="#968B83"/>
<path d="M10.4933 23.7467H8.53333V30H10.4933V23.7467Z" fill="#968B83"/>
<path d="M11.7067 23.7467H13.76V30H11.7067V23.7467Z" fill="#968B83"/>
<path d="M17.0267 23.7467H14.9733V30H17.0267V23.7467Z" fill="#968B83"/>
<path d="M18.24 23.7467H20.2933V30H18.24V23.7467Z" fill="#968B83"/>
<path d="M21.5067 23.7467H23.4667V30H21.5067V23.7467Z" fill="#968B83"/>
<path d="M20.2933 2H18.24V8.25333H20.2933V2Z" fill="#968B83"/>
<path d="M14.9733 2H17.0267V8.25333H14.9733V2Z" fill="#968B83"/>
<path d="M13.76 2H11.7067V8.25333H13.76V2Z" fill="#968B83"/>
<path d="M8.53333 2H10.4933V8.25333H8.53333V2Z" fill="#968B83"/>
<path d="M8.25333 21.5067H2V23.4667H8.25333V21.5067Z" fill="#968B83"/>
<path d="M2 18.24H8.25333V20.2933H2V18.24Z" fill="#968B83"/>
<path d="M8.25333 14.9733H2V17.0267H8.25333V14.9733Z" fill="#968B83"/>
<path d="M2 11.7067H8.25333V13.76H2V11.7067Z" fill="#968B83"/>
<path d="M8.25333 8.53333H2V10.4933H8.25333V8.53333Z" fill="#968B83"/>
<path d="M23.7467 21.5067H30V23.4667H23.7467V21.5067Z" fill="#968B83"/>
<path d="M30 18.24H23.7467V20.2933H30V18.24Z" fill="#968B83"/>
<path d="M23.7467 14.9733H30V17.0267H23.7467V14.9733Z" fill="#968B83"/>
<path d="M30 11.7067H23.7467V13.76H30V11.7067Z" fill="#968B83"/>
<path d="M23.7467 8.53333H30V10.4933H23.7467V8.53333Z" fill="#968B83"/>
</svg>
