<svg width="32" height="32" viewBox="0 0 32 32" fill="none" xmlns="http://www.w3.org/2000/svg">
<path d="M23.9646 14.5553V8.42396C23.9646 8.39922 23.9548 8.37548 23.9373 8.35798C23.9198 8.34048 23.896 8.33064 23.8713 8.33064H20.1075C20.0837 8.33064 20.0608 8.32118 20.044 8.30432C20.0271 8.28747 20.0176 8.26462 20.0176 8.24079V5.28917C20.0176 5.26442 20.0078 5.24069 19.9903 5.22319C19.9728 5.20568 19.949 5.19586 19.9243 5.19586H18.3413C18.3172 5.19587 18.2939 5.18651 18.2765 5.16975C18.2591 5.15299 18.2489 5.13014 18.248 5.10599V1.08987C18.248 1.06603 18.2385 1.04317 18.2217 1.02632C18.2048 1.00946 18.182 1 18.1581 1H13.5613C13.5372 0.999983 13.5139 1.00935 13.4965 1.02611C13.4791 1.04287 13.4689 1.06572 13.468 1.08987V5.11636C13.468 5.14019 13.4585 5.16305 13.4417 5.1799C13.4248 5.19675 13.402 5.20622 13.3782 5.20622H11.65C11.6259 5.20712 11.6031 5.21734 11.5863 5.23475C11.5696 5.25215 11.5602 5.27538 11.5602 5.29954V8.22696C11.5593 8.2511 11.5491 8.27396 11.5317 8.29072C11.5143 8.30748 11.4911 8.31684 11.4669 8.31682H7.57177C7.54702 8.31682 7.52329 8.32665 7.50579 8.34415C7.48829 8.36165 7.47845 8.38539 7.47845 8.41014V14.7938C7.47858 14.8086 7.47518 14.8232 7.46857 14.8364C7.46196 14.8496 7.4523 14.8611 7.44039 14.8698L4.03952 17.1959C4.02317 17.2069 4.01084 17.2231 4.00459 17.2418C3.99834 17.2606 3.99849 17.2809 4.00493 17.2995L4.48876 18.8376L7.08785 27.0876C7.09136 27.0998 7.09754 27.111 7.10591 27.1206C7.11427 27.1302 7.12465 27.1378 7.13628 27.1429L10.3609 28.6567L15.3344 31H15.3689H16.3609H16.4023L24.6282 27.1429C24.6398 27.1378 24.6502 27.1302 24.6585 27.1206C24.6669 27.111 24.6731 27.0998 24.6766 27.0876L27.7595 17.2995C27.766 17.2809 27.766 17.2606 27.7598 17.2418C27.7535 17.2231 27.7413 17.2069 27.7249 17.1959L23.9888 14.6348C23.9769 14.626 23.9672 14.6146 23.9606 14.6014C23.954 14.5881 23.9506 14.5735 23.9508 14.5588" fill="#2A7DE1"/>
</svg>
