<svg width="48" height="48" viewBox="0 0 48 48" fill="none" xmlns="http://www.w3.org/2000/svg">
<path d="M44.2304 42.0311H42.3613L24.8796 10.9946L28.5903 4.14958C28.7827 3.76472 28.6453 3.29739 28.288 3.10496C27.9031 2.91253 27.4359 3.04998 27.2435 3.40735L24 9.34523L20.8115 3.40735C20.6191 3.02249 20.1243 2.88504 19.767 3.10496C19.3822 3.29739 19.2448 3.79221 19.4647 4.14958L23.1479 10.9946L5.63874 42.0311H3.76963C3.32984 42.0311 3 42.3884 3 42.8008C3 43.2131 3.35733 45 3.76963 45H44.2304C44.6702 45 45 43.2406 45 42.8008C45 42.3609 44.6702 42.0311 44.2304 42.0311Z" fill="#008164"/>
</svg>
