<svg width="32" height="32" viewBox="0 0 32 32" fill="none" xmlns="http://www.w3.org/2000/svg">
<path fill-rule="evenodd" clip-rule="evenodd" d="M9.43381 2H22.6249C23.81 2 24.9466 2.47208 25.7846 3.3124C26.6226 4.15271 27.0933 5.29242 27.0933 6.4808V10.8696H28.2637C28.6704 10.8696 29 11.1957 29 11.598V16.5759C29 16.9782 28.6704 17.3043 28.2637 17.3043H27.0933V23.6367C27.0933 24.2237 26.9776 24.8049 26.7526 25.3468C26.5277 25.8888 26.1981 26.3807 25.7827 26.7943C25.5008 27.0751 25.1832 27.316 24.8388 27.5112C24.8396 27.5229 24.84 27.5348 24.84 27.5467V29.4968C24.84 29.7747 24.6202 30 24.3491 30H21.8642C21.5931 30 21.3733 29.7747 21.3733 29.4968V28.0869H10.9733V29.4968C10.9733 29.7747 10.7591 30 10.4947 30H8.07192C7.8076 30 7.59333 29.7747 7.59333 29.4968V27.6873C7.08675 27.4562 6.62771 27.1314 6.24042 26.7297C5.82626 26.3 5.50263 25.7912 5.28883 25.2334C5.07502 24.6757 4.97542 24.0805 4.99597 23.4833V17.3043H3.73628C3.32965 17.3043 3 16.9782 3 16.5759V11.598C3 11.1957 3.32965 10.8696 3.73628 10.8696H4.99597V6.4808C4.99194 5.89383 5.10374 5.31185 5.32496 4.76839C5.54617 4.22493 5.87242 3.73073 6.28491 3.31424C6.69741 2.89775 7.188 2.56721 7.72842 2.34166C8.26885 2.1161 8.84844 1.99999 9.43381 2ZM24.4612 15.1355V8.78258C24.4462 8.49592 24.3731 8.21532 24.2465 7.95784C24.12 7.70036 23.9425 7.47137 23.725 7.28479C23.5074 7.09821 23.2543 6.95793 22.981 6.87248C22.7077 6.78703 22.42 6.75818 22.1352 6.7877H10.1071C9.55196 6.76257 9.00928 6.9579 8.59677 7.33133C8.18426 7.70477 7.93517 8.22621 7.90352 8.78258V15.1355C7.93517 15.6919 8.18426 16.2133 8.59677 16.5867C9.00928 16.9602 9.55196 17.1555 10.1071 17.1304H22.2576C22.8128 17.1555 23.3555 16.9602 23.768 16.5867C24.1805 16.2133 24.4296 15.6919 24.4612 15.1355Z" fill="#C69C6D"/>
</svg>
